<svg xmlns="http://www.w3.org/2000/svg" width="30" height="30" fill="none">
    <g clip-path="url(#a)" fill="#000">
        <path d="m15 30-8.007-.745-3.977-2.27-2.354-4.082L0 15l.667-8.012 2.349-3.972L7.096.662 15 0l8.012.667 3.973 2.349 2.348 3.972L30 15l-.693 8.012-2.322 3.973-4.03 2.301L15 30Zm-7.805-1.215 7.805.698 7.831-.709 3.76-2.172 2.224-3.807.668-7.795-.647-7.852-2.224-3.76-3.76-2.224L15 .517l-7.759.657-3.853 2.214-2.224 3.76L.517 15l.647 7.805 2.224 3.807 3.807 2.173Z"/>
        <path d="M8.24 26.922H3.078v-5.156h.254v4.903H8.24v.253ZM26.923 26.922h-5.11v-.253h4.856v-4.903h.254v5.157ZM26.923 8.137h-.254V3.332h-4.857v-.254h5.11v5.059ZM3.332 8.188h-.254v-5.11H8.24v.254H3.332v4.856Z"/>
        <path d="M15 6.853 8.178 3.315l.119-.227L15 6.568l6.755-3.48.12.227L15 6.853ZM29.624 14.947l-2.936 6.766.232.1 2.936-6.765-.232-.101Z"/>
        <path d="m15.053 29.866-.104-.238 6.74-2.912v-4.95L23.158 15l-1.47-6.786v-4.93L14.95.369l.104-.233 6.89 2.984v5.07L23.421 15l-1.485 6.792.005 5.09-6.89 2.984Z"/>
        <path d="M8.11 27.01v-5.245L6.631 15l.005-.026 1.48-6.817-.006-5.038 6.838-2.98.104.228-6.688 2.917v4.904L6.89 15l1.469 6.735.005 4.851L15 23.095l6.874 3.59-.119.227L15 23.38 8.11 27.01Z"/>
        <path d="m8.29 26.68-.102.232 6.76 2.948.102-.232L8.29 26.68ZM26.91 8.143l-.232.101 2.947 6.812.233-.1-2.948-6.813Z"/>
        <path d="m15 23.369-6.791-1.48H3.104l-2.97-6.837.234-.104 2.844 6.523L6.621 15l-3.62-6.942h5.234L15 6.58h.026l6.817 1.474h5.173L23.43 15l3.575 6.89h-5.173L15 23.368ZM3.414 21.636h4.82L15 23.11l6.787-1.469h4.8L23.146 15l.03-.057 3.415-6.631h-4.78L15 6.842l-6.724 1.47H3.414L6.905 15l-3.49 6.636Z"/>
        <path d="M3.084 8.137.14 14.951l.232.1 2.943-6.813-.232-.1Z"/>
        <path d="m.97 6.954-.11.228L3.144 8.3l.112-.228L.97 6.954ZM7.234.856l-.228.112 1.118 2.286.228-.111L7.234.856ZM22.811.861l-1.118 2.286.228.112L23.039.973 22.81.86ZM26.856 8.302l-.114-.227 2.292-1.123.108.228-2.286 1.122ZM29.034 22.997l-2.292-1.118.114-.233 2.286 1.123-.108.228ZM22.822 29.09l-1.123-2.235.228-.114 1.122 2.235-.227.114ZM7.231 29.09l-.227-.114 1.122-2.235.223.114L7.23 29.09ZM3.144 21.65.857 22.77l.112.227 2.286-1.118-.111-.227Z"/>
    </g>
    <defs>
        <clipPath id="a">
            <path fill="#fff" d="M0 0h30v30H0z"/>
        </clipPath>
    </defs>
</svg>