<svg width="41" height="19" viewBox="0 0 41 19" fill="none" xmlns="http://www.w3.org/2000/svg">
<path d="M33.5279 9.47655C33.5279 10.4529 32.7261 11.2366 31.7512 11.2302C30.7763 11.2302 29.9937 10.4272 30.0001 9.45085C30.0001 8.47448 30.8019 7.69081 31.7768 7.69723C32.7518 7.69723 33.5343 8.50017 33.5279 9.47655Z" stroke="currentColor" stroke-width="0.86"/>
<path d="M37.0556 9.47655C37.0556 10.4529 36.2539 11.2366 35.2789 11.2302C34.304 11.2302 33.5215 10.4272 33.5279 9.45085C33.5279 8.47448 34.3296 7.69081 35.3046 7.69723C36.2795 7.69723 37.062 8.50017 37.0556 9.47655Z" stroke="currentColor" stroke-width="0.86"/>
<path d="M40.5449 9.47655C40.5449 10.4529 39.7431 11.2366 38.7682 11.2302C37.7933 11.2302 37.0107 10.4272 37.0172 9.45085C37.0172 8.47448 37.8189 7.69081 38.7939 7.69723C39.7688 7.69723 40.5513 8.50017 40.5449 9.47655Z" stroke="currentColor" stroke-width="0.86"/>
<path d="M4.79922 9.47655C4.79922 10.4529 3.99746 11.2366 3.02252 11.2302C2.04758 11.2302 1.26506 10.4272 1.27148 9.45085C1.27148 8.47448 2.07324 7.69081 3.04818 7.69723C4.02312 7.69723 4.80564 8.50017 4.79922 9.47655Z" stroke="currentColor" stroke-width="0.86"/>
<path d="M8.32055 9.47655C8.32055 10.4529 7.5188 11.2366 6.54386 11.2302C5.56892 11.2302 4.7864 10.4272 4.79281 9.45085C4.79281 8.47448 5.59457 7.69081 6.56951 7.69723C7.54445 7.69723 8.32697 8.50017 8.32055 9.47655Z" stroke="currentColor" stroke-width="0.86"/>
<path d="M11.8162 9.47655C11.8162 10.4529 11.0145 11.2366 10.0395 11.2302C9.06459 11.2302 8.28207 10.4272 8.28848 9.45085C8.28848 8.47448 9.09025 7.69081 10.0652 7.69723C11.0401 7.69723 11.8226 8.50017 11.8162 9.47655Z" stroke="currentColor" stroke-width="0.86"/>
<path d="M24.5418 9.48939C24.5289 11.4293 22.9511 12.9902 21.014 12.9774C19.077 12.9645 17.5183 11.3843 17.5312 9.44443C17.544 7.50453 19.1219 5.94361 21.0589 5.95646C22.996 5.9693 24.5546 7.54949 24.5418 9.48939Z" stroke="currentColor" stroke-width="0.86"/>
<path d="M20.6219 2.9374L20.6035 6.02712" stroke="currentColor" stroke-width="0.86"/>
<path d="M20.5574 13.1765L20.533 16.2726" stroke="currentColor" stroke-width="0.86"/>
<path d="M24.375 9.56005L27.7745 9.58278" stroke="currentColor" stroke-width="0.86"/>
<path d="M26.2351 4.4662L23.291 7.09342" stroke="currentColor" stroke-width="0.86"/>
<path d="M18.6536 11.6284L15.8122 14.1593" stroke="currentColor" stroke-width="0.86"/>
<path d="M14.0483 9.4637L17.1399 9.48124" stroke="currentColor" stroke-width="0.86"/>
<path d="M18.1598 7.15766L15.8763 4.75526" stroke="currentColor" stroke-width="0.86"/>
<path d="M25.3243 14.3199L23.1884 12.0845" stroke="currentColor" stroke-width="0.86"/>
<path d="M21.9441 1.67839C21.9441 2.35929 21.386 2.90529 20.7061 2.89886C20.0263 2.89886 19.4811 2.34002 19.4875 1.65912C19.4875 0.978231 20.0455 0.432231 20.7254 0.438655C21.4053 0.438655 21.9505 0.997501 21.9441 1.67839Z" stroke="currentColor" stroke-width="0.86"/>
<path d="M21.9441 1.67839C21.9441 2.35929 21.386 2.90529 20.7061 2.89886C20.0263 2.89886 19.4811 2.34002 19.4875 1.65912C19.4875 0.978231 20.0455 0.432231 20.7254 0.438655C21.4053 0.438655 21.9505 0.997501 21.9441 1.67839Z" stroke="currentColor" stroke-width="0.86"/>
<path d="M19.5003 1.78117C19.7056 2.42994 19.3464 3.11726 18.705 3.32924C18.0571 3.53479 17.3644 3.17507 17.1592 2.5263C16.9539 1.87752 17.3131 1.18378 17.9545 0.978229C18.6023 0.772676 19.2951 1.13239 19.5003 1.78117Z" stroke="currentColor" stroke-width="0.86"/>
<path d="M19.5003 1.78117C19.7056 2.42994 19.3464 3.11726 18.705 3.32924C18.0571 3.53479 17.3644 3.17507 17.1592 2.5263C16.9539 1.87752 17.3131 1.18378 17.9545 0.978229C18.6023 0.772676 19.2951 1.13239 19.5003 1.78117Z" stroke="currentColor" stroke-width="0.86"/>
<path d="M17.1976 2.6355C17.5953 3.18792 17.467 3.95874 16.9154 4.35058C16.3638 4.74884 15.5941 4.62037 15.2029 4.06794C14.8116 3.51552 14.9335 2.7447 15.4915 2.35286C16.0431 1.9546 16.8128 2.08307 17.2041 2.6355" stroke="currentColor" stroke-width="0.86"/>
<path d="M17.1976 2.6355C17.5953 3.18792 17.467 3.95874 16.9154 4.35058C16.3638 4.74884 15.5941 4.62037 15.2029 4.06794C14.8116 3.51552 14.9335 2.7447 15.4915 2.35286C16.0431 1.9546 16.8128 2.08307 17.2041 2.6355H17.1976Z" stroke="currentColor" stroke-width="0.86"/>
<path d="M15.2798 4.15787C15.8314 4.56255 15.9469 5.32695 15.5428 5.87938C15.1387 6.4318 14.3754 6.54742 13.8238 6.14274C13.2786 5.73806 13.1568 4.97366 13.5609 4.42124C13.9649 3.86881 14.7282 3.75319 15.2798 4.1643" stroke="currentColor" stroke-width="0.86"/>
<path d="M15.2798 4.15787C15.8314 4.56255 15.9469 5.32695 15.5428 5.87938C15.1387 6.4318 14.3754 6.54742 13.8238 6.14274C13.2786 5.73806 13.1568 4.97366 13.5609 4.42124C13.9649 3.86881 14.7282 3.75319 15.2798 4.1643V4.15787Z" stroke="currentColor" stroke-width="0.86"/>
<path d="M13.92 6.20055C14.5615 6.41253 14.9142 7.11269 14.7026 7.75505C14.4909 8.3974 13.7918 8.75069 13.1504 8.53872C12.5089 8.32674 12.1562 7.62658 12.3678 6.98422C12.5795 6.34187 13.2722 5.98858 13.92 6.20055Z" stroke="currentColor" stroke-width="0.86"/>
<path d="M13.92 6.20055C14.5615 6.41253 14.9142 7.11269 14.7026 7.75505C14.4909 8.3974 13.7918 8.75069 13.1504 8.53872C12.5089 8.32674 12.1562 7.62658 12.3678 6.98422C12.5795 6.34187 13.2786 5.98858 13.92 6.20055Z" stroke="currentColor" stroke-width="0.86"/>
<path d="M13.2594 8.55799C13.9393 8.55799 14.4845 9.11683 14.4781 9.79773C14.4781 10.4786 13.92 11.0246 13.2402 11.0182C12.5603 11.0182 12.0151 10.4593 12.0215 9.77846C12.0215 9.09756 12.5795 8.55156 13.2594 8.55156" stroke="currentColor" stroke-width="0.86"/>
<path d="M13.2594 8.55799C13.9393 8.55799 14.4845 9.11683 14.4781 9.79773C14.4781 10.4786 13.92 11.0246 13.2402 11.0182C12.5603 11.0182 12.0151 10.4593 12.0215 9.77846C12.0215 9.09756 12.5795 8.55156 13.2594 8.55799Z" stroke="currentColor" stroke-width="0.86"/>
<path d="M13.362 11.0182C14.0098 10.8126 14.7026 11.1724 14.9078 11.8147C15.1131 12.4635 14.7539 13.1572 14.1061 13.3628C13.4582 13.5683 12.7655 13.2086 12.5603 12.5598C12.355 11.9111 12.7142 11.2173 13.362 11.0118" stroke="currentColor" stroke-width="0.86"/>
<path d="M13.362 11.0182C14.0098 10.8126 14.7026 11.1724 14.9078 11.8147C15.1131 12.4635 14.7539 13.1572 14.1061 13.3628C13.4582 13.5683 12.7655 13.2086 12.5603 12.5598C12.355 11.9111 12.7142 11.2173 13.362 11.0118V11.0182Z" stroke="currentColor" stroke-width="0.86"/>
<path d="M14.2087 13.3178C14.7603 12.9196 15.53 13.048 15.9212 13.6005C16.3189 14.1529 16.1906 14.9237 15.639 15.3155C15.0874 15.7074 14.3177 15.5853 13.9265 15.0265C13.5288 14.4741 13.6571 13.7032 14.2087 13.3114" stroke="currentColor" stroke-width="0.86"/>
<path d="M14.2087 13.3178C14.7603 12.9196 15.53 13.048 15.9212 13.6005C16.3189 14.1529 16.1906 14.9237 15.639 15.3155C15.0874 15.7074 14.3177 15.5853 13.9265 15.0265C13.5288 14.4741 13.6571 13.7032 14.2087 13.3114V13.3178Z" stroke="currentColor" stroke-width="0.86"/>
<path d="M15.7352 15.2384C16.1393 14.686 16.9026 14.5704 17.4542 14.9751C17.9994 15.3798 18.1213 16.1442 17.7172 16.6966C17.3131 17.2426 16.5498 17.3646 15.9982 16.96C15.4466 16.5553 15.3312 15.7909 15.7352 15.2384Z" stroke="currentColor" stroke-width="0.86"/>
<path d="M15.7352 15.2384C16.1393 14.686 16.9026 14.5704 17.4542 14.9751C17.9994 15.3798 18.1213 16.1442 17.7172 16.6966C17.3131 17.2426 16.5498 17.3646 15.9982 16.96C15.4466 16.5553 15.3312 15.7909 15.7352 15.2384Z" stroke="currentColor" stroke-width="0.86"/>
<path d="M17.7749 16.6002C17.9866 15.9579 18.6857 15.6046 19.3271 15.8166C19.9685 16.0285 20.3213 16.7287 20.1096 17.3711C19.898 18.0134 19.1988 18.3667 18.5574 18.1547C17.916 17.9428 17.5632 17.2426 17.7749 16.6002Z" stroke="currentColor" stroke-width="0.86"/>
<path d="M17.7749 16.6002C17.9866 15.9579 18.6857 15.6046 19.3271 15.8166C19.9685 16.0285 20.3213 16.7287 20.1096 17.3711C19.898 18.0134 19.1988 18.3667 18.5574 18.1547C17.916 17.9428 17.5632 17.2426 17.7749 16.6002Z" stroke="currentColor" stroke-width="0.86"/>
<path d="M20.1353 17.2619C20.1353 16.581 20.6933 16.035 21.3732 16.0414C22.0531 16.0414 22.5983 16.6002 22.5919 17.2811C22.5919 17.962 22.0339 18.508 21.354 18.5016C20.6741 18.5016 20.1289 17.9427 20.1353 17.2619Z" stroke="currentColor" stroke-width="0.86"/>
<path d="M20.1353 17.2619C20.1353 16.581 20.6933 16.035 21.3732 16.0414C22.0531 16.0414 22.5983 16.6002 22.5919 17.2811C22.5919 17.962 22.0339 18.508 21.354 18.5016C20.6741 18.5016 20.1289 17.9427 20.1353 17.2619Z" stroke="currentColor" stroke-width="0.86"/>
<path d="M22.5791 17.1591C22.3738 16.5103 22.733 15.8166 23.3744 15.611C24.0222 15.399 24.7149 15.7588 24.9266 16.4075C25.1319 17.0563 24.7727 17.75 24.1249 17.9556C23.477 18.1612 22.7843 17.8014 22.5791 17.1591Z" stroke="currentColor" stroke-width="0.86"/>
<path d="M22.5791 17.1591C22.3738 16.5103 22.733 15.8166 23.3744 15.611C24.0222 15.399 24.7149 15.7588 24.9266 16.4075C25.1319 17.0563 24.7727 17.75 24.1249 17.9556C23.477 18.1676 22.7843 17.8079 22.5791 17.1591Z" stroke="currentColor" stroke-width="0.86"/>
<path d="M24.8753 16.3112C24.4776 15.7588 24.6059 14.9879 25.1575 14.5961C25.7091 14.1978 26.4788 14.3263 26.8701 14.8852C27.2678 15.4376 27.1395 16.2084 26.5879 16.6002C26.0363 16.9985 25.2666 16.87 24.8753 16.3176" stroke="currentColor" stroke-width="0.86"/>
<path d="M24.8753 16.3112C24.4776 15.7588 24.6059 14.9879 25.1575 14.5961C25.7091 14.1978 26.4788 14.3263 26.8701 14.8852C27.2678 15.4376 27.1395 16.2084 26.5879 16.6002C26.0363 16.9985 25.2666 16.87 24.8753 16.3112Z" stroke="currentColor" stroke-width="0.86"/>
<path d="M26.7995 14.7824C26.2479 14.3777 26.1324 13.6133 26.5365 13.0609C26.9406 12.5084 27.7039 12.3928 28.2555 12.7975C28.8007 13.2022 28.9226 13.9666 28.5121 14.519C28.108 15.0714 27.3447 15.1871 26.7931 14.7824" stroke="currentColor" stroke-width="0.86"/>
<path d="M26.7995 14.7824C26.2479 14.3777 26.1324 13.6133 26.5365 13.0609C26.9406 12.5084 27.7039 12.3928 28.2555 12.7975C28.8007 13.2022 28.9226 13.9666 28.5121 14.519C28.108 15.0714 27.3447 15.1871 26.7931 14.7824H26.7995Z" stroke="currentColor" stroke-width="0.86"/>
<path d="M28.1593 12.7397C27.5179 12.5277 27.1651 11.8276 27.3768 11.1852C27.5885 10.5429 28.2876 10.1896 28.929 10.4015C29.5704 10.6135 29.9232 11.3137 29.7115 11.956C29.4999 12.5984 28.8071 12.9517 28.1593 12.7397Z" stroke="currentColor" stroke-width="0.86"/>
<path d="M28.1593 12.7397C27.5179 12.5277 27.1651 11.8276 27.3768 11.1852C27.5885 10.5429 28.2876 10.1896 28.929 10.4015C29.5704 10.6135 29.9232 11.3137 29.7115 11.956C29.4999 12.5984 28.8071 12.9517 28.1593 12.7397Z" stroke="currentColor" stroke-width="0.86"/>
<path d="M28.82 10.3758C28.1401 10.3758 27.5949 9.817 27.6013 9.1361C27.6013 8.45521 28.1593 7.90921 28.8392 7.91563C29.5191 7.91563 30.0643 8.47448 30.0579 9.15537C30.0579 9.83627 29.4998 10.3823 28.82 10.3758Z" stroke="currentColor" stroke-width="0.86"/>
<path d="M28.82 10.3758C28.1401 10.3758 27.5949 9.817 27.6013 9.1361C27.6013 8.45521 28.1593 7.90921 28.8392 7.91563C29.5191 7.91563 30.0643 8.47448 30.0579 9.15537C30.0579 9.83627 29.4998 10.3823 28.82 10.3758Z" stroke="currentColor" stroke-width="0.86"/>
<path d="M28.7173 7.92206C28.0695 8.12761 27.3768 7.76789 27.1715 7.12554C26.9663 6.47676 27.3255 5.78302 27.9669 5.57747C28.6147 5.37192 29.3074 5.73164 29.5127 6.37399C29.7179 7.02276 29.3587 7.7165 28.7173 7.92206Z" stroke="currentColor" stroke-width="0.86"/>
<path d="M28.7173 7.92206C28.0695 8.12761 27.3768 7.76789 27.1715 7.12554C26.9663 6.47676 27.3255 5.78302 27.9669 5.57747C28.6147 5.37192 29.3074 5.73164 29.5127 6.37399C29.7179 7.02276 29.3587 7.7165 28.7173 7.92206Z" stroke="currentColor" stroke-width="0.86"/>
<path d="M27.8643 5.62244C27.3126 6.02069 26.543 5.89222 26.1517 5.3398C25.754 4.78095 25.8823 4.01656 26.4403 3.62472C26.9919 3.22646 27.7616 3.35493 28.1529 3.90736C28.5442 4.45978 28.4223 5.2306 27.8707 5.62244" stroke="currentColor" stroke-width="0.86"/>
<path d="M27.8643 5.62244C27.3126 6.02069 26.543 5.89222 26.1517 5.3398C25.754 4.78095 25.8823 4.01656 26.4403 3.62472C26.9919 3.22646 27.7616 3.35493 28.1529 3.90736C28.5442 4.45978 28.4223 5.2306 27.8643 5.62244Z" stroke="currentColor" stroke-width="0.86"/>
<path d="M26.3441 3.69538C25.94 4.2478 25.1768 4.36342 24.6252 3.95874C24.0735 3.55406 23.9581 2.78966 24.3622 2.23724C24.7663 1.69124 25.5295 1.56919 26.0811 1.97387C26.6328 2.37856 26.7482 3.14296 26.3441 3.69538Z" stroke="currentColor" stroke-width="0.86"/>
<path d="M26.3441 3.69538C25.94 4.2478 25.1768 4.36342 24.6252 3.95874C24.0735 3.55406 23.9581 2.78966 24.3622 2.23724C24.7663 1.69124 25.5295 1.56919 26.0811 1.97387C26.6328 2.37856 26.7482 3.14296 26.3441 3.69538Z" stroke="currentColor" stroke-width="0.86"/>
<path d="M24.3044 2.33359C24.0928 2.97595 23.4001 3.32924 22.7522 3.11726C22.1108 2.90529 21.7581 2.20512 21.9697 1.56277C22.1814 0.92042 22.8805 0.567126 23.5219 0.779103C24.1633 0.991079 24.5161 1.68482 24.3044 2.33359Z" stroke="currentColor" stroke-width="0.86"/>
<path d="M24.3044 2.33359C24.0928 2.97595 23.4001 3.32924 22.7522 3.11726C22.1108 2.90529 21.7581 2.20512 21.9697 1.56277C22.1814 0.92042 22.8805 0.567126 23.5219 0.779103C24.1633 0.991079 24.5161 1.68482 24.3044 2.33359Z" stroke="currentColor" stroke-width="0.86"/>
</svg>
