<svg xmlns="http://www.w3.org/2000/svg" width="34" height="32" viewBox="0 0 36 34" fill="currentColor">
    <path d="M35 11.514c0-5.969-3.23-8.498-5.155-9.472-2.796-1.42-6.243-1.382-9.002.088A8.204 8.204 0 0 0 18 4.62a8.237 8.237 0 0 0-2.836-2.487c-.003 0-.007-.003-.007-.003C12.402.656 8.954.62 6.159 2.042 4.23 3.016 1 5.545 1 11.514c0 1.393.218 2.803.642 4.192 1.032 3.366 3.355 6.76 6.907 10.09 2.817 2.646 5.811 4.724 7.998 6.24.49.341.937.648 1.32.925.015.01.03.018.044.021.008.004.012.007.019.007a.24.24 0 0 0 .14 0c.007-.003.011-.007.018-.007l.045-.02c.383-.275.83-.585 1.32-.926 2.187-1.516 5.181-3.59 7.998-6.24 3.548-3.33 5.871-6.724 6.907-10.09.424-1.39.642-2.8.642-4.192Zm-.443 0c0 1.21-.177 2.43-.508 3.64l-4.577-6.166.465-6.411c2.98 1.66 4.62 4.815 4.62 8.937Zm-16.196 11.1 2.737-1.741v4.059l-2.737-2.318ZM18 32.254l-3.053-6.795L18 22.874l3.053 2.589L18 32.254ZM11.753 5.496l5.465 2.233-5.623.894.158-3.127ZM18 8.032l6.442 1.023.705 4.7-3.994 6.576L18 22.336l-3.153-2.005-3.994-6.577.705-4.699L18 8.032Zm7.52 5.244-.628-4.182 3.913.148-3.286 4.034Zm3.72-3.873 4.561 6.145-6.28 2.374-1.888-4.094 3.607-4.425Zm-.2-.573-4.192-.158-.17-3.373 4.813-2.69-.45 6.221Zm-4.793-3.334.155 3.127-5.624-.894 5.469-2.233Zm-13.766 7.78-3.29-4.03 3.913-.149-.623 4.179Zm.671-4.604L6.96 8.83l-.45-6.222 4.813 2.69-.17 3.374Zm-.782 5.156-1.888 4.094-6.284-2.374L6.76 9.403l3.61 4.425ZM8.38 18.34l.1 6.789c-3.131-3.022-5.24-6.089-6.27-9.124l6.17 2.335Zm.442.166 5.639 2.117v4.58l-5.539.225-.1-6.922Zm.07-.426 1.76-3.816 3.521 5.8-5.28-1.984Zm6.011 2.796 2.737 1.741-2.737 2.322v-4.063Zm10.447-6.612 1.76 3.816-5.281 1.984 3.521-5.8Zm-3.809 6.36 5.639-2.118-.1 6.922-5.539-.226v-4.579Zm6.081-2.284 6.173-2.335c-1.029 3.035-3.138 6.102-6.269 9.124l.096-6.789Zm1.656-16.098-4.798 2.68-3.138-2.567c2.456-1.203 5.432-1.245 7.936-.113ZM17.812 5.116c0 .004.004.004.004.007.007.01.018.021.03.032.01.01.018.02.032.028.004 0 .004.003.008.003.007.007.018.007.03.01.014.008.029.015.043.015.015.003.026 0 .041 0 .015 0 .03 0 .044-.004.015-.003.03-.01.044-.014.012-.003.019-.003.03-.01.004 0 .004-.004.007-.004.011-.007.023-.017.034-.028.01-.01.022-.017.03-.031 0-.004.003-.004.006-.008.664-1.034 1.608-1.91 2.737-2.542l3.116 2.546L18 7.589l-6.04-2.47 3.116-2.546c1.128.633 2.072 1.509 2.736 2.543Zm-3.15-2.761-3.138 2.568-4.8-2.68a9.375 9.375 0 0 1 3.845-.824 9.33 9.33 0 0 1 4.094.936Zm-8.599.222.465 6.411L1.95 15.15a13.735 13.735 0 0 1-.508-3.636c0-4.122 1.64-7.277 4.62-8.937ZM16.81 31.695c-2.08-1.442-4.89-3.397-7.575-5.856l5.303-.214 2.936 6.534-.664-.464Zm2.382 0-.667.464 2.935-6.534 5.303.214c-2.681 2.459-5.491 4.414-7.57 5.856Z" fill="currenColor" stroke="currentColor" stroke-width=".4"/>
</svg>