<svg width="33" height="22" viewBox="0 0 33 22" fill="none" xmlns="http://www.w3.org/2000/svg">
<path d="M13.8843 3.29207L19.161 3.32389L16.5543 8.84124C16.4434 8.64154 16.306 8.38042 16.1499 8.07323C15.856 7.495 15.5077 6.77828 15.1674 6.06331C14.6386 4.95223 14.1341 3.85543 13.8843 3.29207Z" stroke="currentColor" stroke-width="0.5"/>
<path d="M8.99788 3.28978H12.5673L14.7961 8.27754C14.7633 8.24873 14.7307 8.22002 14.6981 8.19135L14.6776 8.17328C14.3979 7.92693 14.1188 7.68225 13.7623 7.41605C13.5383 7.22524 13.2572 6.98817 12.9412 6.72158C11.7263 5.69675 9.99424 4.23569 8.99788 3.28978Z" stroke="currentColor" stroke-width="0.5"/>
<path d="M20.4743 3.30193H23.9718C23.7846 3.46803 23.5488 3.67419 23.2758 3.91077C22.6612 4.44332 21.874 5.11644 21.0713 5.79948C20.0201 6.69398 18.943 7.60476 18.1933 8.23795L20.4743 3.30193Z" stroke="currentColor" stroke-width="0.5"/>
<path d="M18.6284 2.26694H14.5122L16.5441 0.512514C16.7483 0.685133 16.9836 0.873771 17.2257 1.06788C17.4079 1.21392 17.5939 1.36305 17.7734 1.5108C18.0883 1.76984 18.3854 2.02617 18.6284 2.26694Z" stroke="currentColor" stroke-width="0.5"/>
<path d="M18.0291 0.25335L21.4732 0.271429L19.8611 2.09944C19.5927 1.86706 19.2385 1.50292 18.8598 1.1082C18.8222 1.06896 18.7844 1.02946 18.7464 0.989843C18.5046 0.737502 18.2582 0.480278 18.0291 0.25335Z" stroke="currentColor" stroke-width="0.5"/>
<path d="M11.5908 0.359772C11.5628 0.322964 11.5363 0.287559 11.5114 0.253686L14.9669 0.281154L13.0065 1.95751C12.788 1.75591 12.4622 1.40818 12.1407 1.03458C11.9403 0.801801 11.7473 0.565671 11.5908 0.359772Z" stroke="currentColor" stroke-width="0.5"/>
<path d="M8.80735 2.28797C9.00185 2.0656 9.24758 1.79559 9.49889 1.52862C9.83226 1.17448 10.1577 0.844777 10.3744 0.646156L11.7184 2.27017L8.80735 2.28797Z" stroke="currentColor" stroke-width="0.5"/>
<path d="M21.3134 2.29125L22.7498 0.692025C23.1401 1.09505 23.7567 1.784 24.1919 2.29125H21.3134Z" stroke="currentColor" stroke-width="0.5"/>
<path d="M8.95482 8.83269C8.96534 8.32472 9.14231 7.80412 9.47657 7.2704C13.98 8.54173 18.4725 8.54098 22.976 7.26816C23.3274 7.77697 23.5584 8.31596 23.5945 8.84012C23.6321 9.38749 23.4594 9.94092 22.9412 10.4583C18.4609 12.0303 14.001 12.0555 9.52309 10.4656C9.11569 9.90975 8.94376 9.36614 8.95482 8.83269Z" stroke="currentColor" stroke-width="0.5"/>
<path d="M12.3187 9.03421C12.3187 9.52658 11.8213 10.0001 11.1072 10.0001C10.3931 10.0001 9.89572 9.52658 9.89572 9.03421C9.89572 8.54184 10.3931 8.0683 11.1072 8.0683C11.8213 8.0683 12.3187 8.54184 12.3187 9.03421Z" stroke="currentColor" stroke-width="0.5"/>
<path d="M12.9325 10.2623C12.9325 10.7547 12.4351 11.2282 11.721 11.2282C11.0069 11.2282 10.5096 10.7547 10.5096 10.2623C10.5096 9.76991 11.0069 9.29637 11.721 9.29637C12.4351 9.29637 12.9325 9.76991 12.9325 10.2623Z" stroke="currentColor" stroke-width="0.5"/>
<path d="M10.8426 9.59353C10.8426 10.0859 10.3452 10.5594 9.63109 10.5594C8.91699 10.5594 8.41962 10.0859 8.41962 9.59353C8.41962 9.10116 8.91699 8.62762 9.63109 8.62762C10.3452 8.62762 10.8426 9.10116 10.8426 9.59353Z" stroke="currentColor" stroke-width="0.5"/>
<path d="M11.5294 7.8668C11.5294 8.35917 11.0321 8.83271 10.318 8.83271C9.60388 8.83271 9.10651 8.35917 9.10651 7.8668C9.10651 7.37442 9.60388 6.90089 10.318 6.90089C11.0321 6.90089 11.5294 7.37442 11.5294 7.8668Z" stroke="currentColor" stroke-width="0.5"/>
<path d="M13.707 8.32898C13.707 8.82135 13.2097 9.29489 12.4956 9.29489C11.7815 9.29489 11.2841 8.82135 11.2841 8.32898C11.2841 7.83661 11.7815 7.36307 12.4956 7.36307C13.2097 7.36307 13.707 7.83661 13.707 8.32898Z" stroke="currentColor" stroke-width="0.5"/>
<path d="M15.87 9.78807C15.87 10.2804 15.3727 10.754 14.6586 10.754C13.9445 10.754 13.4471 10.2804 13.4471 9.78807C13.4471 9.2957 13.9445 8.82216 14.6586 8.82216C15.3727 8.82216 15.87 9.2957 15.87 9.78807Z" stroke="currentColor" stroke-width="0.5"/>
<path d="M16.6592 10.9432C16.6592 11.4356 16.1619 11.9091 15.4478 11.9091C14.7337 11.9091 14.2363 11.4356 14.2363 10.9432C14.2363 10.4508 14.7337 9.97728 15.4478 9.97728C16.1619 9.97728 16.6592 10.4508 16.6592 10.9432Z" stroke="currentColor" stroke-width="0.5"/>
<path d="M14.4816 10.5055C14.4816 10.9978 13.9843 11.4714 13.2702 11.4714C12.5561 11.4714 12.0587 10.9978 12.0587 10.5055C12.0587 10.0131 12.5561 9.53955 13.2702 9.53955C13.9843 9.53955 14.4816 10.0131 14.4816 10.5055Z" stroke="currentColor" stroke-width="0.5"/>
<path d="M14.9054 8.71807C14.9054 9.21045 14.4081 9.68398 13.694 9.68398C12.9799 9.68398 12.4825 9.21045 12.4825 8.71807C12.4825 8.2257 12.9799 7.75216 13.694 7.75216C14.4081 7.75216 14.9054 8.2257 14.9054 8.71807Z" stroke="currentColor" stroke-width="0.5"/>
<path d="M17.1415 8.93694C17.1415 9.42931 16.6441 9.90285 15.93 9.90285C15.2159 9.90285 14.7186 9.42931 14.7186 8.93694C14.7186 8.44456 15.2159 7.97103 15.93 7.97103C16.6441 7.97103 17.1415 8.44456 17.1415 8.93694Z" stroke="currentColor" stroke-width="0.5"/>
<path d="M19.4945 9.90967C19.4945 10.402 18.9971 10.8756 18.283 10.8756C17.5689 10.8756 17.0716 10.402 17.0716 9.90967C17.0716 9.41729 17.5689 8.94376 18.283 8.94376C18.9971 8.94376 19.4945 9.41729 19.4945 9.90967Z" stroke="currentColor" stroke-width="0.5"/>
<path d="M20.7513 10.7365C20.7513 11.2289 20.254 11.7024 19.5399 11.7024C18.8258 11.7024 18.3284 11.2289 18.3284 10.7365C18.3284 10.2441 18.8258 9.77058 19.5399 9.77058C20.254 9.77058 20.7513 10.2441 20.7513 10.7365Z" stroke="currentColor" stroke-width="0.5"/>
<path d="M18.5299 11.004C18.5299 11.4964 18.0325 11.9699 17.3184 11.9699C16.6043 11.9699 16.107 11.4964 16.107 11.004C16.107 10.5116 16.6043 10.0381 17.3184 10.0381C18.0325 10.0381 18.5299 10.5116 18.5299 11.004Z" stroke="currentColor" stroke-width="0.5"/>
<path d="M18.1353 9.20444C18.1353 9.69681 17.6379 10.1703 16.9238 10.1703C16.2097 10.1703 15.7124 9.69681 15.7124 9.20444C15.7124 8.71206 16.2097 8.23853 16.9238 8.23853C17.6379 8.23853 18.1353 8.71206 18.1353 9.20444Z" stroke="currentColor" stroke-width="0.5"/>
<path d="M20.3129 8.73023C20.3129 9.22261 19.8156 9.69614 19.1015 9.69614C18.3874 9.69614 17.89 9.22261 17.89 8.73023C17.89 8.23786 18.3874 7.76432 19.1015 7.76432C19.8156 7.76432 20.3129 8.23786 20.3129 8.73023Z" stroke="currentColor" stroke-width="0.5"/>
<path d="M22.7828 9.08285C22.7828 9.57522 22.2854 10.0488 21.5713 10.0488C20.8572 10.0488 20.3598 9.57522 20.3598 9.08285C20.3598 8.59048 20.8572 8.11694 21.5713 8.11694C22.2854 8.11694 22.7828 8.59048 22.7828 9.08285Z" stroke="currentColor" stroke-width="0.5"/>
<path d="M24.1419 9.77592C24.1419 10.2683 23.6446 10.7418 22.9305 10.7418C22.2164 10.7418 21.719 10.2683 21.719 9.77592C21.719 9.28355 22.2164 8.81001 22.9305 8.81001C23.6446 8.81001 24.1419 9.28355 24.1419 9.77592Z" stroke="currentColor" stroke-width="0.5"/>
<path d="M21.9643 10.2623C21.9643 10.7547 21.467 11.2282 20.7529 11.2282C20.0388 11.2282 19.5414 10.7547 19.5414 10.2623C19.5414 9.76991 20.0388 9.29637 20.7529 9.29637C21.467 9.29637 21.9643 9.76991 21.9643 10.2623Z" stroke="currentColor" stroke-width="0.5"/>
<path d="M21.3213 8.51137C21.3213 9.00374 20.8239 9.47728 20.1098 9.47728C19.3957 9.47728 18.8983 9.00374 18.8983 8.51137C18.8983 8.019 19.3957 7.54546 20.1098 7.54546C20.8239 7.54546 21.3213 8.019 21.3213 8.51137Z" stroke="currentColor" stroke-width="0.5"/>
<path d="M23.4112 7.83046C23.4112 8.32283 22.9139 8.79637 22.1998 8.79637C21.4856 8.79637 20.9883 8.32283 20.9883 7.83046C20.9883 7.33809 21.4856 6.86455 22.1998 6.86455C22.9139 6.86455 23.4112 7.33809 23.4112 7.83046Z" stroke="currentColor" stroke-width="0.5"/>
<path d="M20.9886 16.1691C19.9816 15.2364 19.0926 14.3176 18.4018 13.4544L23.1488 18.052C22.3969 17.4302 21.6678 16.7982 20.9886 16.1691ZM22.6183 12.0541L29.8672 18.5769C28.4644 17.6087 27.1498 16.6876 26.0129 15.7816C24.4008 14.4967 23.1971 13.2791 22.6183 12.0541Z" stroke="currentColor" stroke-width="0.5"/>
<path d="M6.98712 15.7816C5.85028 16.6876 4.5356 17.6087 3.13282 18.5769L10.3818 12.0541C9.80298 13.2791 8.59921 14.4967 6.98712 15.7816ZM9.85128 18.052L14.5982 13.4544C13.9074 14.3176 13.0184 15.2364 12.0115 16.1691C11.3323 16.7982 10.6032 17.4302 9.85128 18.052Z" stroke="currentColor" stroke-width="0.5"/>
</svg>
