<?xml version="1.0" encoding="UTF-8"?>
<svg
    xmlns="http://www.w3.org/2000/svg"
    viewBox="0 0 81 77"
    fill="none"
>
    <!-- Flask -->
    <path
        d="M38.98 43.4748L40.9516 45.2248H25.1526C23.79 45.2248 22.5458 44.5321 21.8303 43.3723C21.1125 42.2147 21.0487 40.7929 21.6571 39.5715L31.0406 20.8114V13.3192H29.5823C29.0992 13.3192 28.7073 12.9273 28.7073 12.4442C28.7073 11.9611 29.0992 11.5692 29.5823 11.5692H41.2489C41.732 11.5692 42.1239 11.9611 42.1239 12.4442C42.1239 12.9273 41.732 13.3192 41.2489 13.3192H39.7906V20.8114L42.5099 26.25H40.7314C40.6759 26.25 40.6257 26.2767 40.5708 26.2819L38.134 21.4084C38.0708 21.2819 38.05 21.1486 38.0503 21.0165H38.0406V13.3192H32.7906V21.0165H32.7809C32.7812 21.1486 32.7604 21.2819 32.6972 21.4084L28.6668 29.468H36.7885L35.6218 30.6346H28.0835L23.2226 40.3554C22.8876 41.0276 22.9218 41.8137 23.3183 42.454C23.7148 43.092 24.4007 43.4748 25.1526 43.4748H38.98Z"
        fill="currentColor"
    />

    <!-- Diamond -->
    <path
        d="M63.7634 35.7821L48.3498 49.4517L32.9495 35.7821L40.7314 28H55.9812L63.7634 35.7821ZM35.5002 35.7064L48.2501 47.0233L53.9615 35.8505L49.7021 29.75H41.4563L35.5002 35.7064ZM61.2122 35.7058L55.2564 29.75H51.1263L55.3196 35.7593L50.4829 45.2208L61.2122 35.7058ZM42.2498 35.6562L43.7241 31.9762L39.7496 35.951L47.6149 42.9325L42.2498 35.6562Z"
        fill="currentColor"
    />

    <!-- LAB text -->
    <g fill="currentColor">
        <path d="M35.9036 73H30.4016V63.662H31.5636V71.964H35.9036V73Z" />
        <path
            d="M42.5829 73H41.5329V72.23C40.9635 72.8553 40.2169 73.168 39.2929 73.168C38.6675 73.168 38.1169 72.9673 37.6409 72.566C37.1649 72.1647 36.9269 71.6187 36.9269 70.928C36.9269 70.2187 37.1602 69.6727 37.6269 69.29C38.1029 68.898 38.6582 68.702 39.2929 68.702C40.2542 68.702 41.0009 69.01 41.5329 69.626V68.408C41.5329 67.96 41.3742 67.61 41.0569 67.358C40.7395 67.106 40.3289 66.98 39.8249 66.98C39.0315 66.98 38.3409 67.2927 37.7529 67.918L37.2629 67.19C37.9815 66.4433 38.8822 66.07 39.9649 66.07C40.7395 66.07 41.3695 66.2567 41.8549 66.63C42.3402 67.0033 42.5829 67.5773 42.5829 68.352V73Z" />
        <path
            d="M45.7377 71.166C45.9244 71.4647 46.2044 71.7167 46.5777 71.922C46.9604 72.1273 47.3524 72.23 47.7537 72.23C48.4257 72.23 48.9577 71.9873 49.3497 71.502C49.7417 71.0167 49.9377 70.3913 49.9377 69.626C49.9377 68.8607 49.7417 68.2353 49.3497 67.75C48.9577 67.2553 48.4257 67.008 47.7537 67.008C47.3524 67.008 46.9604 67.1153 46.5777 67.33C46.2044 67.5353 45.9244 67.792 45.7377 68.1V71.166ZM45.7377 73H44.6877V63.662H45.7377V67.26C46.3257 66.4667 47.0864 66.07 48.0197 66.07C48.9064 66.07 49.6297 66.3967 50.1897 67.05C50.7497 67.694 51.0297 68.5527 51.0297 69.626C51.0297 70.7087 50.7497 71.572 50.1897 72.216C49.639 72.8507 48.9157 73.168 48.0197 73.168C47.077 73.168 46.3164 72.776 45.7377 71.992V73Z" />
    </g>
</svg>