<svg width="48" height="24" viewBox="0 0 48 18" fill="none" xmlns="http://www.w3.org/2000/svg">
    <path d="M24.0395 17C27.3722 17 30.0738 13.4183 30.0738 9C30.0738 4.58172 27.3722 1 24.0395 1C20.7068 1 18.0051 4.58172 18.0051 9C18.0051 13.4183 20.7068 17 24.0395 17Z" stroke="currentColor" stroke-width="0.88"/>
    <path d="M29.7342 9.00001L24.0395 16.579L18.3448 9.00001L24.0395 1.49343L29.7342 9.00001Z" stroke="currentColor" stroke-width="0.88"/>
    <path d="M1.33961 7.79605C1.33961 7.79605 6.52883 7.79605 12.6422 12.8947C12.6422 12.8947 16.1253 15.0921 17.8314 13.6053C17.8314 13.6053 21.3146 9.99342 11.7102 7.80263C11.797 7.80263 4.82278 6.31579 1.33961 7.80263V7.79605Z" fill="white" stroke="currentColor" stroke-width="0.88" stroke-linecap="round"/>
    <path d="M0.999987 10.2763C0.999987 10.2763 6.1892 10.2763 12.3025 5.17763C12.3025 5.17763 15.7857 2.98026 17.4918 4.4671C17.4918 4.4671 20.9749 8.07895 11.3705 10.2697C11.3705 10.2697 4.48316 11.6842 0.999987 10.2697V10.2763Z" fill="white" stroke="currentColor" stroke-width="0.88" stroke-linecap="round"/>
    <path d="M46.5735 7.79605C46.5735 7.79605 41.3843 7.79605 35.2709 12.8947C35.2709 12.8947 31.7878 15.0921 30.0817 13.6053C30.0817 13.6053 26.5986 9.99342 36.203 7.80263C36.1161 7.80263 43.0903 6.31579 46.5735 7.80263V7.79605Z" fill="white" stroke="currentColor" stroke-width="0.88" stroke-linecap="round"/>
    <path d="M47 10.2763C47 10.2763 41.8108 10.2763 35.6974 5.17763C35.6974 5.17763 32.2143 2.98026 30.5082 4.4671C30.5082 4.4671 27.025 8.07895 36.6294 10.2697C36.5426 10.2697 43.5168 11.6842 47 10.2697V10.2763Z" fill="white" stroke="currentColor" stroke-width="0.88" stroke-linecap="round"/>
</svg>
