<svg xmlns="http://www.w3.org/2000/svg" width="20" height="30" fill="none"><g clip-path="url(#a)" fill="#000"><path d="M9.864 30C4.424 30 0 23.273 0 15S4.424 0 9.864 0c5.441 0 9.865 6.727 9.865 15s-4.424 15-9.865 15Zm0-29.492C4.704.508.508 7.012.508 15c0 7.988 4.195 14.491 9.356 14.491S19.22 22.988 19.22 15C19.22 7.012 15.025.508 9.864.508Z"/><path d="M16.908 25.347h-4.144v-.254h3.89v-6.178h.254v6.432ZM16.908 11.085h-.255V4.907h-3.89v-.255h4.145v6.433Z"/><path d="m9.971 29.811-.213-.132 2.888-4.51L15.122 15 12.646 4.83 9.758.325 9.97.183l2.914 4.566 2.501 10.25-.01.031-2.507 10.256-2.898 4.525Z"/><path d="m19.368 15.07-2.68-3.894L9.632 6.66l3.025-1.968 1.16-3.061.239.091-1.19 3.138-.036.025-2.73 1.775 6.788 4.352 2.695 3.915-.214.143Z"/><path d="m13.816 28.368-1.155-3.061-3.03-1.917 7.058-4.566 2.68-3.895.213.142-2.73 3.95-6.753 4.369 2.766 1.744.015.04 1.175 3.102-.24.092ZM16.83 11.202l-.101-.234 2.135-.966.102.234-2.136.966Z"/><path d="m18.864 19.999-2.136-.966.102-.234 2.136.966-.102.234ZM6.966 25.347H2.822v-6.432h.254v6.178h3.89v.254ZM3.076 11.085h-.254V4.652h4.144v.255h-3.89v6.178Z"/><path d="m9.757 29.812-2.914-4.56L4.342 15l.01-.031L6.859 4.714 9.757.184l.214.142-2.889 4.505-2.476 10.17L7.082 25.17l2.889 4.51-.214.132Z"/><path d="m.36 15.07-.214-.142 2.736-3.95L9.63 6.66 6.863 4.866 5.628 1.723l.234-.091 1.205 3.06 3.03 1.969-7.057 4.515L.36 15.07Z"/><path d="m5.862 28.368-.234-.092 1.235-3.142.036-.02 2.73-1.724-6.788-4.404-2.695-3.915.214-.142 2.68 3.895 7.057 4.566-3.03 1.917-1.205 3.06ZM.868 10.005l-.104.231 2.135.966.105-.231-2.136-.966Z"/><path d="m2.897 18.797-2.135.967.104.231 2.136-.967-.105-.231Z"/></g><defs><clipPath id="a"><path fill="#fff" d="M0 0h19.729v30H0z"/></clipPath></defs></svg>