<svg xmlns="http://www.w3.org/2000/svg" width="20" height="30" viewBox="0 0 20 30" fill="none">
    <path d="M9.53186 30C4.18793 30 0 25.6549 0 20.1132C0 15.8036 1.21683 7.48352 9.36454 0.152104L9.53186 0L9.70424 0.152104C17.8469 7.53929 19.0637 15.829 19.0637 20.1132C19.0637 25.6549 14.8758 30 9.53186 30ZM9.53186 0.684469C1.68329 7.8435 0.507014 15.9202 0.507014 20.1132C0.507014 25.3507 4.47186 29.493 9.53186 29.493C14.5919 29.493 18.5567 25.3507 18.5567 20.1132C18.5567 15.9456 17.3804 7.89927 9.53186 0.684469Z" fill="#231F20"></path>
    <path d="M17.1023 26.1213H1.96289L9.53261 0L17.1023 26.1213ZM2.29752 25.8577H16.7677L9.53261 0.917695L2.29752 25.8577Z" fill="#231F20"></path>
    <path d="M9.53119 24.1539L3.40139 21.7L0.0703125 19.2663L0.156505 19.1598L9.36894 7.83822L6.13927 3.8683L6.33193 3.70605L9.53119 7.64048L12.7304 3.70605L12.9231 3.8683L9.69343 7.83822L18.9921 19.2663L15.7168 21.7L9.53119 24.1539ZM0.435362 19.2257L3.54843 21.482L9.53119 23.8801L15.6154 21.4718L18.6574 19.2257L9.53119 8.04102L0.435362 19.2257Z" fill="#231F20"></path>
    <path d="M5.37468 28.7634L5.17188 28.6062L7.19993 25.919L9.52712 23.8555L12.0166 25.9241L13.8976 28.6113L13.6897 28.7583L11.8188 26.0813L9.53219 24.185L7.38752 26.0914L5.37468 28.7634Z" fill="#231F20"></path>
    <path d="M9.52672 29.9901L7.19446 26.0608L4.39067 17.8218L3.57945 15.0839L3.0116 8.43191L7.84851 5.75995L7.97019 5.97797L3.27524 8.57388L3.82789 15.0332L4.63404 17.7458L7.42262 25.9543L9.53686 29.5085L11.7981 25.9442L12.8578 22.6131L14.5867 18.344L15.2357 15.0231L15.7883 8.47755L11.0427 5.97797L11.1644 5.75488L16.052 8.33051L15.4892 15.0586L14.8301 18.415L13.0961 22.6993L12.0212 26.0659L9.52672 29.9901Z" fill="#231F20"></path>
</svg>