<svg xmlns="http://www.w3.org/2000/svg" width="30" height="30" fill="none">
    <path d="M29.969 30H0V0h29.969v30ZM.517 29.483h28.966V.517H.517v28.966Z" fill="#000"/>
    <path d="m.306 29.866-.156-.15L8.643 8.793l.052-.051L29.66.15l.16.156-8.544 20.819-.052.046L.306 29.866ZM8.85 8.896.46 29.484l20.613-8.514L29.483.518 8.85 8.897Z" fill="#000"/>
    <path d="M29.659 29.866 8.85 21.326l-.051-.052L.15.306.306.15 21.43 8.747l.046.052 8.343 20.845-.16.222ZM9 21.125l20.483 8.358L21.274 8.95.462.518 9 21.125Z" fill="#000"/>
    <path d="M8.949 8.798h-.254V3.781l.155-.15h12.425v.253H8.949v4.914Z" fill="#000"/>
    <path d="M21.377 3.63h-.254v5.168h.253V3.631Z" fill="#000"/>
    <path d="M26.234 8.695h-4.96v.254h4.96v-.254Z" fill="#000"/>
    <path d="M26.384 8.643h-.253V21.17h.253V8.643Z" fill="#000"/>
    <path d="M26.286 21.02H20.97v.254h5.317v-.254Z" fill="#000"/>
    <path d="M21.274 26.39H8.643v-.254h12.48v-5.27h.254v5.373l-.103.15Z" fill="#000"/>
    <path d="M8.949 20.969h-.254v5.219h.254v-5.22Z" fill="#000"/>
    <path d="M8.902 21.02H3.734v.254h5.168v-.254ZM3.937 20.918h-.253V8.798l.15-.103h4.913v.254h-4.81v11.969Z" fill="#000"/>
</svg>