<svg
    width="17"
    height="16"
    viewBox="0 0 17 16"
    fill="none"
    xmlns="http://www.w3.org/2000/svg"
>
    <path
        d="M9.933 2.29898L9.27109 1.64958L9.39763 2.20123L9.933 2.29898Z"
        fill="#E100A2"
    />
    <path
        fill-rule="evenodd"
        clip-rule="evenodd"
        d="M8.50102 4.50461L11.0656 2.27138L11.0246 2.23138L11.0614 2.19955L11.0088 2.21564L9.76972 1H7.22982L5.99078 2.21564L5.93398 2.19582L5.97491 2.23135L5.93398 2.27138L5.93816 2.2751L8.50102 4.50461ZM10.2341 2.48577L8.49977 3.0906L6.77964 2.49078L6.50026 2.25477L7.39102 1.3812H9.60852L10.4993 2.25487L10.2341 2.48577Z"
        fill="#E100A2"
    />
    <path
        d="M10.0783 4.17583L9.30576 4.84852C10.3506 5.04531 11.2831 5.61715 11.9212 6.45233C12.5593 7.28752 12.8571 8.32605 12.7565 9.36508C12.6558 10.4041 12.1639 11.369 11.3767 12.0713C10.5895 12.7736 9.56384 13.1628 8.50019 13.1629C7.43612 13.1631 6.41048 12.7741 5.62328 12.072C4.83609 11.37 4.34373 10.4052 4.24267 9.36619C4.14161 8.32719 4.43936 7.28857 5.07705 6.45322C5.71516 5.61788 6.64726 5.04579 7.69212 4.84873L6.91996 4.17629C5.75692 4.5455 4.76635 5.30989 4.12657 6.33184C3.48721 7.3538 3.24041 8.56619 3.43084 9.75074C3.62168 10.9353 4.23682 12.0142 5.16642 12.7932C6.0956 13.5722 7.27785 14.0002 8.50061 14C9.72295 13.9998 10.9052 13.5716 11.8344 12.7923C12.7636 12.0131 13.3787 10.934 13.5687 9.74942C13.7591 8.56482 13.5119 7.3525 12.8721 6.3307C12.2324 5.30892 11.2414 4.54478 10.0783 4.17583Z"
        fill="#E100A2"
    />
</svg>