<svg xmlns="http://www.w3.org/2000/svg" width="25" height="30" viewBox="0 0 25 30" fill="none">
    <g clip-path="url(#clip0_1549_376)">
    <path d="M20.7466 30H3.45L0 26.5655V3.18621L3.18621 0H21.0259L24.181 3.16034V26.5655L20.7466 30ZM3.67759 29.4828H20.5397L23.6741 26.3793V3.36724L20.8138 0.517241H3.3931L0.517241 3.3931V26.3793L3.67759 29.4828Z" fill="black"></path>
    <path d="M19.0079 27.4142H5.39933L2.71484 24.6056V5.39525L5.54933 2.45215H18.5631L21.6666 5.36939V24.6056L19.0079 27.4142ZM5.50795 27.1608H18.8993L21.4235 24.528V5.47801L18.4597 2.7056H5.65795L2.96829 5.4987V24.5073L5.50795 27.1608Z" fill="black"></path>
    <path d="M0.331641 26.5608L0.181641 26.3798L2.73681 24.497C2.96957 23.7626 6.3575 12.8022 5.48337 2.65912L3.20233 0.341878L3.37819 0.166016L5.72647 2.52464V2.58671C6.65233 13.0867 3.00061 24.4815 2.9644 24.5953V24.6367L0.331641 26.5608Z" fill="black"></path>
    <path d="M3.65602 29.8242L3.4543 29.669L5.32671 27.2224C5.37326 26.4259 6.05602 13.7742 2.7405 5.52416L0.154297 3.38796L0.319814 3.19141L2.9474 5.40003C6.39223 13.9035 5.56981 27.1242 5.56464 27.2742V27.3155L3.65602 29.8242Z" fill="black"></path>
    <path d="M23.8507 26.5602L21.4455 24.636V24.5998C18.0576 15.6257 18.3835 2.70498 18.3835 2.58602V2.53429L20.83 0.160156L21.0059 0.346363L18.6214 2.63257C18.6214 3.53774 18.4093 15.8429 21.6421 24.4808L24.0059 26.3791L23.8507 26.5602Z" fill="black"></path>
    <path d="M20.5388 29.8192L18.8267 27.2847C17.5388 17.9743 21.4129 5.50883 21.4129 5.38469V5.35366L23.844 3.1709L24.0147 3.35711L21.6612 5.49331C21.4388 6.21228 17.8388 18.2175 19.075 27.2175L20.7457 29.6743L20.5388 29.8192Z" fill="black"></path>
    <path d="M5.50257 27.3823L5.4043 27.1496C5.50257 27.1082 15.2577 23.1099 21.5733 24.4289L21.5215 24.6823C15.2836 23.3789 5.59568 27.341 5.50257 27.3823Z" fill="black"></path>
    <path d="M18.9573 27.3827C18.8642 27.3413 9.17627 23.3792 2.92282 24.6827L2.87109 24.4292C9.18661 23.1154 18.9418 27.1085 19.0401 27.1499L18.9573 27.3827Z" fill="black"></path>
    <path d="M5.58058 5.78766C4.62923 5.79651 3.67947 5.70812 2.74609 5.52387L2.79782 5.27559C9.03575 6.57387 18.3668 2.6118 18.4599 2.58594L18.5633 2.8187C18.4806 2.83939 11.5392 5.78766 5.58058 5.78766Z" fill="black"></path>
    <path d="M18.7288 5.78766C12.7288 5.78766 5.63745 2.83939 5.55469 2.80318L5.65296 2.58594C5.75124 2.62732 15.2788 6.58939 21.5219 5.29111L21.5737 5.53939C20.6363 5.71874 19.6831 5.80193 18.7288 5.78766Z" fill="black"></path>
    </g>
    <defs>
    <clipPath id="clip0_1549_376">
    <rect width="24.181" height="30" fill="white"></rect>
    </clipPath>
    </defs>
</svg>