<svg xmlns="http://www.w3.org/2000/svg" width="30" height="30" fill="none">
    <g clip-path="url(#a)" fill="#000">
        <path d="M14.95 30a15 15 0 1 1 14.948-15A14.99 14.99 0 0 1 14.95 30Zm0-29.492a14.492 14.492 0 1 0-.103 28.983A14.492 14.492 0 0 0 14.95.508Z"/>
        <path d="M25.55 25.551h-6.228v-.254h5.975v-5.975h.254v6.23ZM25.55 10.678h-.253V4.703h-5.975V4.45h6.229v6.229ZM4.754 10.678H4.5V4.449h6.229v.254H4.754v5.975ZM10.729 25.551H4.5v-6.229h.254v5.975h5.975v.254Z"/>
        <path d="m25.515 19.414-.183-.183 4.236-4.23-4.236-4.231.183-.183L29.924 15l-4.409 4.413ZM15 29.924l-4.363-4.409.183-.183L15 29.568l4.23-4.236.183.183-4.414 4.409ZM4.536 19.413.127 15l4.434-4.434 4.693-1.312 1.383-4.77L15 .077l4.413 4.409-.183.183L15 .432l-4.16 4.21-1.382 4.816-4.765 1.332L.483 15l4.236 4.23-.183.183Z"/>
        <path d="m4.734 19.388-.218-.133L7.022 15l-2.506-4.257.218-.132L7.317 15l-2.583 4.389ZM19.256 25.53l-4.306-2.7-4.15 2.7-.142-.213 4.292-2.792 4.439 2.792-.133.213ZM25.312 19.388l-2.628-4.389 2.628-4.388.224.132L22.978 15l2.558 4.256-.224.133Z"/>
        <path d="m19.443 25.454-.244-.06 1.185-5.01.076-.014 4.932-1.17.061.244-4.855 1.155-1.155 4.855ZM14.949 7.216l-4.287-2.533.132-.213 4.155 2.45 4.311-2.455.122.224-4.433 2.527Z"/>
        <path d="M25.392 10.8 20.491 9.51l-1.292-4.902.244-.061 1.251 4.76 4.76 1.25-.062.244ZM10.606 25.454 9.452 20.6l-4.856-1.155.06-.244 5.01 1.185 1.184 5.008-.244.061Z"/>
        <path d="M14.948 22.815h-.046l-5.44-2.206-2.43-5.594L9.257 9.27l5.69-2.34 5.74 2.38L22.968 15v.051l-2.38 5.537h-.05l-5.589 2.227Zm-5.288-2.42 5.288 2.146 5.446-2.146L22.692 15l-2.196-5.496-5.548-2.299-5.496 2.248-2.146 5.542 2.354 5.4ZM28.531 20.76l-3.152-1.27.091-.234 3.153 1.271-.092.234ZM1.37 9.189l-.097.235 3.206 1.323.097-.235L1.37 9.189ZM19.388 4.627l-.234-.101 1.373-3.204.234.102-1.373 3.203ZM9.421 28.673l-.233-.092 1.321-3.254.234.092-1.322 3.254ZM28.527 9.241l-3.101 1.27.096.235 3.101-1.27-.096-.235ZM4.532 19.15l-3.255 1.326.096.235 3.254-1.325-.095-.235ZM9.475 1.272l-.235.097 1.323 3.206.235-.097-1.323-3.206ZM19.39 25.427l-.234.098 1.322 3.152.234-.099-1.321-3.15Z"/>
    </g>
    <defs>
        <clipPath id="a">
            <path fill="#fff" d="M0 0h29.924v30H0z"/>
        </clipPath>
    </defs>
</svg>