<?xml version="1.0" encoding="UTF-8"?>
<svg
    xmlns="http://www.w3.org/2000/svg"
    width="44"
    height="26"
    viewBox="0 0 44 26"
    aria-hidden="true"
    focusable="false"
>
    <path
        d="M41.0918 13.4185H37.5088C35.449 13.4185 32.6711 13.6237 30.1885 14.461C30.4879 13.8228 30.7239 13.1499 30.8757 12.4443H41.0918C42.1943 12.4443 43.0918 11.5474 43.0918 10.4443C43.0918 9.34131 42.1943 8.44434 41.0918 8.44434H30.8757C29.9543 4.16388 26.1437 0.944336 21.5918 0.944336C17.0399 0.944336 13.2292 4.16388 12.3079 8.44434H2.0918C0.989258 8.44434 0.0917975 9.34131 0.0917975 10.4443C0.0917975 11.5474 0.989258 12.4443 2.0918 12.4443H12.3079C12.46 13.1511 12.6965 13.825 12.9966 14.4641C10.2085 13.5418 7.05835 13.4185 5.6748 13.4185H2.08594C0.983158 13.4185 0.0859375 14.3156 0.0859375 15.4185C0.0859375 16.5212 0.983158 17.4185 2.08594 17.4185H5.67481C6.74427 17.4185 10.4186 17.5089 12.7955 18.673C14.684 19.5978 18.4863 22.8961 20.2332 24.511C20.6024 24.8539 21.0854 25.0435 21.5918 25.0435C22.0981 25.0435 22.5812 24.8539 22.9519 24.5097C24.6973 22.8961 28.4996 19.5978 30.3881 18.673C32.5061 17.6361 35.4294 17.4185 37.5088 17.4185H41.0918C42.1946 17.4185 43.0918 16.5212 43.0918 15.4185C43.0918 14.3156 42.1946 13.4185 41.0918 13.4185ZM13.0918 10.4443C13.0918 8.98774 13.4609 7.61609 14.1094 6.41651L15.3184 7.27534V13.6397L13.9707 14.1846C13.4134 13.0541 13.0918 11.7875 13.0918 10.4443ZM14.3345 14.8465L15.6646 14.3088L21.2168 17.5145V18.9254C18.3003 18.7972 15.766 17.1973 14.3345 14.8465ZM21.5918 4.10938L27.1152 7.29834V13.6763L21.5918 16.8647L16.0684 13.6763V7.29834L21.5918 4.10938ZM21.5918 19.9443C21.7601 19.9443 21.9243 19.9277 22.0906 19.9191C21.9177 20.0684 21.7454 20.2176 21.592 20.3527C21.4349 20.2141 21.2656 20.0671 21.095 19.9192C21.2605 19.9278 21.4241 19.9443 21.5918 19.9443ZM21.9668 18.9254V17.5145L27.4773 14.3329L28.6808 15.1232C27.223 17.3244 24.7688 18.8022 21.9668 18.9254ZM29.0698 14.4811L27.8652 13.6901V7.27533L29.0742 6.4165C29.7227 7.61608 30.0918 8.98773 30.0918 10.4443C30.0918 11.9045 29.7212 13.2795 29.0698 14.4811Z"
        fill="currentColor"
    />
</svg>