<svg
    width="16"
    height="16"
    viewBox="0 0 16 16"
    fill="none"
    xmlns="http://www.w3.org/2000/svg"
>
    <g>
        <path
            d="M6.31079 4.52276L8.25564 2.57727H12.3686L14.3134 4.52276L10.3102 8.07367L6.31079 4.52276Z"
            stroke="#71AC90"
            stroke-width="0.75"
            stroke-miterlimit="10"
        />
        <path
            d="M8.58318 4.49789L10.1025 6.55844L7.87512 4.58138L9.00063 3.45581L8.58318 4.49789Z"
            fill="#71AC90"
        />
        <path
            d="M10.1028 8.02478L11.8841 4.54002L10.5182 2.58319"
            stroke="#71AC90"
            stroke-width="0.5"
            stroke-miterlimit="10"
        />
        <path
            d="M1.68677 8.81969L4.20788 6.29773H9.53954L12.0607 8.81969L6.87121 13.4228L1.68677 8.81969Z"
            fill="white"
        />
        <path
            d="M1.68677 8.81969L4.20788 6.29773H9.53954L12.0607 8.81969L6.87121 13.4228L1.68677 8.81969Z"
            stroke="white"
            stroke-width="2.5"
            stroke-miterlimit="10"
        />
        <path
            d="M1.68677 8.81969L4.20788 6.29773H9.53954L12.0607 8.81969L6.87121 13.4228L1.68677 8.81969Z"
            stroke="#71AC90"
            stroke-width="0.75"
            stroke-miterlimit="10"
        />
        <path
            d="M4.63185 8.78743L6.60136 11.4586L3.71399 8.89568L5.173 7.43658L4.63185 8.78743Z"
            fill="#71AC90"
        />
        <path
            d="M6.87109 13.3594L9.1803 8.84208L7.40967 6.30542"
            stroke="#71AC90"
            stroke-width="0.75"
            stroke-miterlimit="10"
        />
    </g>
</svg>