<svg id="Layer_1" data-name="Layer 1" xmlns="http://www.w3.org/2000/svg" width="70.44" height="40.92" xmlns:xlink="http://www.w3.org/1999/xlink" viewBox="0 0 737.44 463.92">
  <g style="transform: scale(12) translate(-566px, 0px);">
      <path fill="none" stroke="#232323" stroke-miterlimit="10" stroke-width=".7px" d="m584.87,21.48h-14.9c-.49,0-.91-.21-1.26-.49s-.49-.77-.49-1.26c0-.98.77-1.75,1.75-1.75h14.9"/>
      <path fill="none" stroke="#232323" stroke-miterlimit="10" stroke-width=".7px" d="m608.02,21.48h14.9c.49,0,.91-.21,1.26-.49s.49-.77.49-1.26c0-.98-.77-1.75-1.75-1.75h-14.9"/>
      <path fill="#232323" d="m608.54,17.84c-.84-6.01-6.01-10.63-12.24-10.63s-11.4,4.62-12.24,10.63c-.07.56-.14,1.12-.14,1.75,0,.56.07,1.19.14,1.75.84,6.01,6.01,10.63,12.24,10.63s11.4-4.62,12.24-10.63c.07-.56.14-1.12.14-1.75,0-.56-.07-1.19-.14-1.75Zm-.56,2.31c-.14.35-.49.56-.84.42s-.56-.49-.42-.84.49-.56.84-.42.56.49.42.84Zm-2.66-7.41c.35-.14.7.07.84.42s-.07.7-.42.84-.7-.07-.84-.42.07-.7.42-.84Zm-5.73-3.99c.21-.28.63-.35.91-.14s.35.63.14.91c-.21.28-.63.35-.91.14-.35-.21-.35-.63-.14-.91Zm-6.36-.49c.35,0,.63.28.63.63s-.28.63-.63.63-.63-.28-.63-.63.28-.63.63-.63Zm-6.08,3.99c.28-.21.7-.14.91.14s.14.7-.14.91-.7.14-.91-.14c-.21-.28-.14-.7.14-.91Zm-1.33,7.13c-.14.35-.49.56-.84.42-.35-.07-.49-.49-.42-.77.14-.35.49-.56.84-.42.35.07.56.49.42.77Zm1.47,7.06c-.35.14-.7-.07-.84-.42s.07-.7.42-.84.7.07.84.42-.07.7-.42.84Zm5.73,3.99c-.21.28-.63.35-.91.14-.28-.21-.35-.63-.14-.91s.63-.35.91-.14c.28.21.35.56.14.91Zm6.36.49c-.35,0-.63-.28-.63-.63s.28-.63.63-.63.63.28.63.63-.28.63-.63.63Zm6.01-3.99c-.28.21-.7.14-.91-.14-.21-.28-.14-.7.14-.91s.7-.14.91.14c.28.28.21.7-.14.91Zm1.12-3.99c-.35,1.05-1.47,1.61-2.52,1.26h-.07c-.28.42-.56.84-.91,1.26,0,0,0,.07.07.07.63.91.49,2.17-.42,2.8s-2.17.49-2.8-.42c0,0,0-.07-.07-.07-.49.21-.98.35-1.47.49v.07c0,1.12-.91,2.03-2.03,2.03s-2.03-.91-2.03-2.03v-.07c-.49-.14-.98-.28-1.47-.49,0,0,0,.07-.07.07-.63.91-1.89,1.12-2.8.42-.91-.63-1.12-1.89-.42-2.8,0,0,0-.07.07-.07-.35-.35-.63-.77-.91-1.26h-.07c-1.05.35-2.17-.21-2.52-1.26-.21-.56-.14-1.12.14-1.61.21-.42.63-.77,1.12-.91h.07v-1.54h-.07c-.49-.14-.91-.49-1.12-.91-.28-.49-.35-1.05-.14-1.61.35-1.05,1.47-1.61,2.52-1.26h.07c.28-.42.56-.84.91-1.26,0,0,0-.07-.07-.07-.63-.91-.49-2.17.42-2.8s2.17-.49,2.8.42c0,0,0,.07.07.07.49-.21.98-.35,1.47-.49v-.07c0-1.12.91-2.03,2.03-2.03s2.03.91,2.03,2.03v.07c.49.14.98.28,1.47.49,0,0,0-.07.07-.07.63-.91,1.89-1.12,2.8-.42.91.63,1.12,1.89.42,2.8,0,0,0,.07-.07.07.35.35.63.77.91,1.26h.07c1.05-.35,2.17.21,2.52,1.26.21.56.14,1.12-.14,1.61-.21.42-.63.77-1.12.91h-.07v1.54h.07c.49.14.91.49,1.12.91.28.42.35,1.05.14,1.61Z"/>
      <circle fill="none" stroke="#232323" stroke-miterlimit="10" stroke-width=".7px" cx="596.3" cy="19.59" r="8.6"/>
      <rect fill="none" stroke="#232323" stroke-miterlimit="10" stroke-width=".7px" x="591.31" y="14.33" width="10.14" height="10.14" transform="translate(160.96 427.39) rotate(-45)"/>
    </g>
</svg>