<svg width="32" height="32" viewBox="0 0 34 34" xmlns="http://www.w3.org/2000/svg" fill="currentColor"><path d="M28.2641 32.993C28.2781 32.993 28.2922 32.9895 28.3062 32.986C28.3202 32.9824 28.3308 32.9754 28.3448 32.9684C28.3518 32.9649 28.3589 32.9649 28.3659 32.9579C28.3729 32.9544 28.3729 32.9473 28.3799 32.9438C28.3834 32.9403 28.3905 32.9368 28.394 32.9333L32.9333 28.3935C32.9368 28.3899 32.9403 28.3829 32.9438 28.3794C32.9473 28.3759 32.9544 28.3724 32.9579 28.3654C32.9614 28.3584 32.9649 28.3513 32.9684 28.3443C32.9754 28.3338 32.9789 28.3197 32.986 28.3092C32.9895 28.2952 32.993 28.2811 32.9965 28.2636C32.9965 28.2565 33 28.253 33 28.246V5.75049C33 5.74347 32.9965 5.73645 32.9965 5.73294C32.9965 5.71889 32.993 5.70485 32.9895 5.69081C32.986 5.67676 32.9789 5.66623 32.9719 5.65218C32.9684 5.64516 32.9684 5.63814 32.9614 5.63112C32.9579 5.6241 32.9508 5.62409 32.9473 5.61707C32.9438 5.61356 32.9403 5.60654 32.9368 5.60303L28.394 1.0632C28.3905 1.05969 28.3834 1.05618 28.3799 1.05267C28.3764 1.04916 28.3729 1.04213 28.3659 1.03862C28.3589 1.03511 28.3518 1.0316 28.3448 1.02809C28.3308 1.02107 28.3202 1.01404 28.3062 1.01053C28.2922 1.00702 28.2781 1.00351 28.2641 1.00351C28.257 1.00351 28.25 1 28.243 1H5.74997C5.74295 1 5.73593 1.00351 5.72891 1.00351C5.71487 1.00351 5.70082 1.00702 5.68678 1.01053C5.67274 1.01404 5.6622 1.02107 5.64816 1.02809C5.64114 1.0316 5.63412 1.0316 5.6271 1.03862C5.62359 1.04213 5.62008 1.04564 5.61657 1.04916C5.60954 1.05267 5.60252 1.05618 5.59901 1.05969L1.06319 5.60303C1.05968 5.60654 1.05617 5.61356 1.05266 5.61707C1.04915 5.62058 1.04213 5.6241 1.03862 5.63112C1.0316 5.63814 1.0316 5.64867 1.02457 5.65921C1.02106 5.66623 1.01755 5.67325 1.01404 5.68027C1.00702 5.70485 1 5.72943 1 5.754V28.2495C1 28.2741 1.00702 28.2987 1.01404 28.3232C1.01755 28.3303 1.02106 28.3373 1.02457 28.3443C1.02809 28.3548 1.0316 28.3619 1.03862 28.3724C1.04213 28.3794 1.04915 28.3794 1.05266 28.3864C1.05617 28.39 1.05968 28.397 1.06319 28.4005L5.60252 32.9403C5.60603 32.9473 5.61657 32.9473 5.62008 32.9508C5.62359 32.9544 5.6271 32.9579 5.63061 32.9614C5.63763 32.9649 5.64465 32.9684 5.65167 32.9719C5.66572 32.9789 5.67625 32.986 5.69029 32.9895C5.70433 32.993 5.71838 32.9965 5.73242 32.9965C5.73944 32.9965 5.74646 33 5.75348 33H28.2465C28.2535 32.9965 28.257 32.993 28.2641 32.993ZM1.54065 28.2776L3.87877 26.6485L7.35436 30.1244L5.7254 32.4628L1.54065 28.2776ZM1.42479 6.15427L3.6927 7.73426V26.2622L1.42479 27.8422V6.15427ZM5.72189 1.54071L7.35085 3.87909L3.87526 7.35506L1.53714 5.72592L5.72189 1.54071ZM27.8428 1.42484L26.263 3.693H7.73703L6.15721 1.42484H27.8428ZM32.4558 5.7224L30.1177 7.35155L26.6421 3.87558L28.2711 1.5372L32.4558 5.7224ZM32.5717 27.8457L30.3038 26.2657V7.73777L32.5717 6.15778V27.8457ZM28.2746 32.4593L26.6456 30.1209L30.1212 26.6449L32.4594 28.2741L28.2746 32.4593ZM8.02841 29.8857L9.60823 27.6175H24.3848L25.9646 29.8857H8.02841ZM4.11399 8.02919L6.3819 9.60917V24.3873L4.11399 25.9673V8.02919ZM25.9681 4.11433L24.3883 6.38249H9.61174L8.03192 4.11433H25.9681ZM29.8825 25.9708L27.6146 24.3908V9.61268L29.8825 8.0327V25.9708ZM6.80318 24.4119V9.58811L9.58716 6.80382H24.4093L27.1933 9.58811V24.4119L24.4093 27.1962H9.58716L6.80318 24.4119ZM24.7709 27.4314L27.4285 24.7735L29.7666 26.4027L26.3999 29.7698L24.7709 27.4314ZM27.4285 9.22647L24.7709 6.56858L26.3999 4.2302L29.7666 7.59732L27.4285 9.22647ZM9.22556 6.56858L6.56797 9.22647L4.22984 7.59732L7.5966 4.2302L9.22556 6.56858ZM6.56797 24.7735L9.22556 27.4314L7.5966 29.7698L4.22984 26.4027L6.56797 24.7735ZM7.73703 30.307H26.263L27.8428 32.5752H6.1537L7.73703 30.307Z" fill="currenColor" stroke="currentColor" stroke-width="0.4"></path></svg>