<svg xmlns="http://www.w3.org/2000/svg" width="24" height="30" fill="none">
    <g clip-path="url(#a)" fill="#000">
        <path d="M19.48 30H3.605L0 26.395V3.605L3.605 0H19.48l3.605 3.605v22.79L19.48 30Zm-15.661-.509h15.447l3.31-3.31V3.808l-3.31-3.3H3.82l-3.31 3.31v22.374l3.31 3.3Z"/>
        <path d="m17.391 2.62-.914 1.22.203.153.915-1.22-.204-.153ZM4.73 1.35l-.203.153.966 1.271.202-.154-.965-1.27Z"/>
        <path d="m3.813.18-.2.156.915 1.17.2-.158L3.814.18ZM19.272.173l-.915 1.17.2.156.915-1.17-.2-.156ZM18.357 1.349 17.39 2.62l.202.154.966-1.271-.202-.154ZM5.692 2.616l-.2.156.915 1.17.2-.157-.915-1.17ZM16.679 26.06l-.2.156.915 1.169.2-.157-.915-1.169ZM6.406 26.058l-.916 1.169.2.156.916-1.168-.2-.157ZM19.637 29.873H3.447l1.13-1.429.203.163-.804 1.012H19.11l-.804-1.012.204-.163 1.128 1.43Z"/>
        <path d="m17.594 27.228-.203.153.915 1.22.203-.152-.915-1.22ZM5.494 27.227l-.916 1.22.203.152.917-1.22-.204-.152ZM18.83 6.209l-.133-.214 1.373-.813.132.218-1.373.809ZM21.572 25.418l-.127.22 1.322.762.127-.22-1.322-.762ZM20.07 24.818l-1.373-.808.133-.224 1.372.814-.132.218ZM22.767 3.598l-1.322.762.127.22 1.322-.761-.127-.22Z"/>
        <path d="m20.203 5.4-.133-.218 1.373-.814.132.219-1.372.813ZM21.443 25.632l-1.373-.814.133-.218 1.372.813-.132.219ZM1.565 25.365.19 26.18l.13.218 1.373-.814-.13-.219ZM3.014 5.23l-.127.22 1.321.762.127-.22-1.321-.762Z"/>
        <path d="m2.886 24.604-1.322.762.127.22 1.322-.762-.127-.22ZM4.21 23.837l-1.321.762.127.22 1.321-.762-.127-.22ZM1.692 4.417l-.133.217 1.32.813.134-.217-1.321-.813Z"/>
        <path d="m.32 3.602-.13.218 1.373.815.13-.219-1.374-.814Z"/>
        <path d="M1.754 4.525H1.5v-.152l3.036-3.041.183.183-2.965 2.96v.05Z"/>
        <path d="M1.754 4.525H1.5v20.95h.254V4.524Z"/>
        <path d="M4.678 28.652h-.102L1.5 25.576v-.102h.178l.04-.04 3 3-.04.04v.178Z"/>
        <path d="M18.407 28.398H4.678v.255h13.729v-.255ZM18.549 1.336l-.18.18 3.052 3.052.18-.18-3.052-3.052Z"/>
        <path d="M18.458 1.297H4.628v.254h13.83v-.254ZM21.425 25.432l-3.103 3.002.177.182 3.103-3.001-.177-.183Z"/>
        <path d="M21.635 4.475h-.254v21.05h.254V4.476ZM20.262 5.288h-.254v19.424h.254V5.288Z"/>
        <path d="m20.044 5.38-2.593-2.594.04-.04v-.179h.102l2.634 2.63-.183.182ZM3.036 5.38 3 5.34h-.178v-.108l2.68-2.628.183.183-2.65 2.593Z"/>
        <path d="M17.492 2.567H5.594v.255h11.898v-.255ZM17.492 27.178H5.594v.254h11.898v-.254ZM3.076 5.339h-.254v19.373h.254V5.339Z"/>
        <path d="m17.582 27.396-.178-.183 2.64-2.593.177.183-2.639 2.593ZM5.593 27.432h-.101l-2.634-2.629.183-.183 2.593 2.593-.04.041v.178ZM4.18 24.04l-.086-.091V6.1l.086-.091.143.142h.025v17.746h-.025l-.143.142Z"/>
        <path d="M6.508 26.262h-.101L4.18 24.041l.183-.184 2.186 2.187-.04.04v.178ZM16.484 4.007l-.01-.015H6.508v-.255h10.068l.091.087-.142.142v.026l-.04.015Z"/>
        <path d="M6.416 3.777 4.18 6.014l.18.18 2.236-2.237-.18-.18ZM18.671 23.814l-2.187 2.236.182.178 2.187-2.236-.182-.178Z"/>
        <path d="M16.576 26.009H6.508v.254h10.068v-.254ZM16.662 3.824l-.18.18L18.67 6.19l.18-.18-2.187-2.186Z"/>
        <path d="M18.889 6.102h-.254v17.796h.254V6.102Z"/>
    </g>
    <defs>
        <clipPath id="a">
            <path fill="#fff" d="M0 0h23.085v30H0z"/>
        </clipPath>
    </defs>
</svg>