<svg xmlns="http://www.w3.org/2000/svg" width="16" height="30" viewBox="0 0 16 30" fill="none">
    <path d="M7.75469 30L7.60264 29.8733C7.52154 29.8125 0 23.6695 0 15.1292C0 6.58895 7.51647 0.197669 7.60264 0.136847L7.75469 0L7.91688 0.136847C7.99291 0.197669 15.5195 6.6447 15.5195 15.2053C15.5195 23.7658 7.99797 29.8125 7.91688 29.8733L7.75469 30ZM7.75469 0.669032C6.66498 1.64724 0.506842 7.53168 0.506842 15.1292C0.506842 22.7268 6.68018 28.4136 7.75469 29.3462C8.83426 28.4288 15.0025 22.8332 15.0025 15.2053C15.0025 7.57729 8.8444 1.65737 7.75469 0.669032Z" fill="#231F20"></path>
    <path d="M7.8761 29.7063L7.63281 29.6455L13.1827 7.5877L8.80362 4.84569L8.9354 4.63281L13.4767 7.47113L13.4514 7.55729L7.8761 29.7063Z" fill="#231F20"></path>
    <path d="M8.98608 25.4281L8.8543 25.2101L13.1827 22.6709L7.63281 0.359649L7.8761 0.298828L13.4767 22.7925L8.98608 25.4281Z" fill="#231F20"></path>
    <path d="M5.3176 27.1208L5.125 26.9586L15.0895 15.1796L5.125 3.04579L5.3176 2.88867L15.424 15.1847L5.3176 27.1208Z" fill="#231F20"></path>
    <path d="M7.63391 29.7063L2.08398 7.47113L6.62529 4.63281L6.75707 4.84569L2.37795 7.5877L7.87719 29.6455L7.63391 29.7063Z" fill="#231F20"></path>
    <path d="M6.62529 25.428L2.08398 22.7468L7.63391 0.248047L7.87719 0.308868L2.37795 22.6201L6.75707 25.21L6.62529 25.428Z" fill="#231F20"></path>
    <path d="M10.294 27.1208L0.136841 15.134L10.1926 2.88867L10.3852 3.04579L0.471357 15.1289L10.4866 26.9586L10.294 27.1208Z" fill="#231F20"></path>
</svg>