<svg
    xmlns="http://www.w3.org/2000/svg"
    width="16"
    height="16"
    viewBox="0 0 16 16"
    fill="none"
    aria-hidden="true"
    focusable="false"
>
    <path
        d="M4.52005 11.0862L0.930664 9.00729L1.6538 6.88812"
        stroke="#668BAD"
        stroke-width="0.75"
        stroke-linejoin="round"
    />
    <path
        d="M2.73948 6.25928L1.65369 6.88816L4.5099 8.54243"
        stroke="#668BAD"
        stroke-width="0.75"
        stroke-linecap="round"
        stroke-linejoin="round"
    />
    <path
        d="M4.24255 8.38739L4.52016 11.0862"
        stroke="#668BAD"
        stroke-width="0.75"
        stroke-linejoin="round"
    />
    <path
        d="M13.9753 7.21783L15.0694 9.13377L8.10916 13.1651L4.51978 11.0862L5.62773 9.18988"
        stroke="#668BAD"
        stroke-width="0.75"
        stroke-linejoin="round"
    />
    <path
        d="M5.2428 8.96701L8.09901 10.6213L13.9752 7.21785L12.5718 6.40503"
        stroke="#668BAD"
        stroke-width="0.75"
        stroke-linejoin="round"
    />
    <path
        d="M8.09924 10.6213L8.10928 13.1651"
        stroke="#668BAD"
        stroke-width="0.75"
        stroke-linejoin="round"
    />
    <path
        d="M11.4784 4.48907L12.5725 6.40501L6.70633 9.81426L3.11694 7.73534L3.84008 5.61618"
        stroke="#668BAD"
        stroke-width="0.75"
        stroke-linejoin="round"
    />
    <path
        d="M6.69618 7.27048L11.4783 4.48911L8.62205 2.83484L3.83997 5.61622L6.69618 7.27048Z"
        stroke="#668BAD"
        stroke-width="0.75"
        stroke-linejoin="round"
    />
    <path
        d="M6.69641 7.27045L6.70645 9.81426"
        stroke="#668BAD"
        stroke-width="0.75"
        stroke-linejoin="round"
    />
</svg>