<svg width="40" height="15" viewBox="0 0 40 15" fill="none" xmlns="http://www.w3.org/2000/svg">
<path d="M19.8918 14C23.9374 14 27.2169 11.0899 27.2169 7.5C27.2169 3.91015 23.9374 1 19.8918 1C15.8462 1 12.5667 3.91015 12.5667 7.5C12.5667 11.0899 15.8462 14 19.8918 14Z" stroke="currentColor" stroke-width="0.97"/>
<path d="M19.6537 1.6479L12.749 7.77478L19.6537 13.9017L26.5584 7.77479L19.6537 1.6479Z" stroke="currentColor" stroke-width="0.97"/>
<path d="M14.0159 11.265H2.74294C2.74294 11.265 -1.17867 7.29051 2.74294 3.44405L14.0815 3.57207" stroke="currentColor" stroke-width="0.97"/>
<path d="M3.20199 6.1325C3.96257 6.1325 4.57915 5.58538 4.57915 4.91047C4.57915 4.23557 3.96257 3.68845 3.20199 3.68845C2.44141 3.68845 1.82483 4.23557 1.82483 4.91047C1.82483 5.58538 2.44141 6.1325 3.20199 6.1325Z" stroke="currentColor" stroke-width="0.97"/>
<path d="M5.95631 6.1325C6.71689 6.1325 7.33344 5.58538 7.33344 4.91047C7.33344 4.23557 6.71689 3.68845 5.95631 3.68845C5.19572 3.68845 4.57915 4.23557 4.57915 4.91047C4.57915 5.58538 5.19572 6.1325 5.95631 6.1325Z" stroke="currentColor" stroke-width="0.97"/>
<path d="M8.71061 6.1325C9.47119 6.1325 10.0878 5.58538 10.0878 4.91047C10.0878 4.23557 9.47119 3.68845 8.71061 3.68845C7.95003 3.68845 7.33345 4.23557 7.33345 4.91047C7.33345 5.58538 7.95003 6.1325 8.71061 6.1325Z" stroke="currentColor" stroke-width="0.97"/>
<path d="M11.4649 6.1325C12.2255 6.1325 12.8421 5.58538 12.8421 4.91047C12.8421 4.23557 12.2255 3.68845 11.4649 3.68845C10.7043 3.68845 10.0878 4.23557 10.0878 4.91047C10.0878 5.58538 10.7043 6.1325 11.4649 6.1325Z" stroke="currentColor" stroke-width="0.97"/>
<path d="M3.20199 11.0206C3.96257 11.0206 4.57915 10.4735 4.57915 9.79857C4.57915 9.12366 3.96257 8.57655 3.20199 8.57655C2.44141 8.57655 1.82483 9.12366 1.82483 9.79857C1.82483 10.4735 2.44141 11.0206 3.20199 11.0206Z" stroke="currentColor" stroke-width="0.97"/>
<path d="M5.95631 11.0206C6.71689 11.0206 7.33344 10.4735 7.33344 9.79857C7.33344 9.12366 6.71689 8.57655 5.95631 8.57655C5.19572 8.57655 4.57915 9.12366 4.57915 9.79857C4.57915 10.4735 5.19572 11.0206 5.95631 11.0206Z" stroke="currentColor" stroke-width="0.97"/>
<path d="M8.71061 11.0206C9.47119 11.0206 10.0878 10.4735 10.0878 9.79857C10.0878 9.12366 9.47119 8.57655 8.71061 8.57655C7.95003 8.57655 7.33345 9.12366 7.33345 9.79857C7.33345 10.4735 7.95003 11.0206 8.71061 11.0206Z" stroke="currentColor" stroke-width="0.97"/>
<path d="M11.4649 11.0206C12.2255 11.0206 12.8421 10.4735 12.8421 9.79857C12.8421 9.12366 12.2255 8.57655 11.4649 8.57655C10.7043 8.57655 10.0878 9.12366 10.0878 9.79857C10.0878 10.4735 10.7043 11.0206 11.4649 11.0206Z" stroke="currentColor" stroke-width="0.97"/>
<path d="M2.65113 8.57655C3.41171 8.57655 4.02829 8.02943 4.02829 7.35452C4.02829 6.67962 3.41171 6.1325 2.65113 6.1325C1.89055 6.1325 1.27397 6.67962 1.27397 7.35452C1.27397 8.02943 1.89055 8.57655 2.65113 8.57655Z" stroke="currentColor" stroke-width="0.97"/>
<path d="M5.40545 8.57655C6.16603 8.57655 6.78259 8.02943 6.78259 7.35452C6.78259 6.67962 6.16603 6.1325 5.40545 6.1325C4.64487 6.1325 4.02829 6.67962 4.02829 7.35452C4.02829 8.02943 4.64487 8.57655 5.40545 8.57655Z" stroke="currentColor" stroke-width="0.97"/>
<path d="M8.15975 8.57655C8.92033 8.57655 9.53691 8.02943 9.53691 7.35452C9.53691 6.67962 8.92033 6.1325 8.15975 6.1325C7.39917 6.1325 6.78259 6.67962 6.78259 7.35452C6.78259 8.02943 7.39917 8.57655 8.15975 8.57655Z" stroke="currentColor" stroke-width="0.97"/>
<path d="M10.9141 8.57655C11.6747 8.57655 12.2912 8.02943 12.2912 7.35452C12.2912 6.67962 11.6747 6.1325 10.9141 6.1325C10.1535 6.1325 9.53691 6.67962 9.53691 7.35452C9.53691 8.02943 10.1535 8.57655 10.9141 8.57655Z" stroke="currentColor" stroke-width="0.97"/>
<path d="M25.9841 11.265H37.2571C37.2571 11.265 41.1787 7.29051 37.2571 3.44405L25.9185 3.57207" stroke="currentColor" stroke-width="0.97"/>
<path d="M36.798 6.1325C37.5586 6.1325 38.1752 5.58538 38.1752 4.91047C38.1752 4.23557 37.5586 3.68845 36.798 3.68845C36.0374 3.68845 35.4209 4.23557 35.4209 4.91047C35.4209 5.58538 36.0374 6.1325 36.798 6.1325Z" stroke="currentColor" stroke-width="0.97"/>
<path d="M34.0437 6.1325C34.8043 6.1325 35.4209 5.58538 35.4209 4.91047C35.4209 4.23557 34.8043 3.68845 34.0437 3.68845C33.2831 3.68845 32.6665 4.23557 32.6665 4.91047C32.6665 5.58538 33.2831 6.1325 34.0437 6.1325Z" stroke="currentColor" stroke-width="0.97"/>
<path d="M31.2894 6.1325C32.05 6.1325 32.6665 5.58538 32.6665 4.91047C32.6665 4.23557 32.05 3.68845 31.2894 3.68845C30.5288 3.68845 29.9122 4.23557 29.9122 4.91047C29.9122 5.58538 30.5288 6.1325 31.2894 6.1325Z" stroke="currentColor" stroke-width="0.97"/>
<path d="M28.5351 3.68845C29.2958 3.68845 29.9122 4.23545 29.9122 4.91047C29.9122 5.5855 29.2958 6.1325 28.5351 6.1325C27.7744 6.1325 27.1579 5.5855 27.1579 4.91047C27.1579 4.23545 27.7744 3.68845 28.5351 3.68845Z" stroke="currentColor" stroke-width="0.97"/>
<path d="M36.798 11.0206C37.5586 11.0206 38.1752 10.4735 38.1752 9.79857C38.1752 9.12366 37.5586 8.57655 36.798 8.57655C36.0374 8.57655 35.4209 9.12366 35.4209 9.79857C35.4209 10.4735 36.0374 11.0206 36.798 11.0206Z" stroke="currentColor" stroke-width="0.97"/>
<path d="M34.0437 11.0206C34.8043 11.0206 35.4209 10.4735 35.4209 9.79857C35.4209 9.12366 34.8043 8.57655 34.0437 8.57655C33.2831 8.57655 32.6665 9.12366 32.6665 9.79857C32.6665 10.4735 33.2831 11.0206 34.0437 11.0206Z" stroke="currentColor" stroke-width="0.97"/>
<path d="M31.2894 11.0206C32.05 11.0206 32.6665 10.4735 32.6665 9.79857C32.6665 9.12366 32.05 8.57655 31.2894 8.57655C30.5288 8.57655 29.9122 9.12366 29.9122 9.79857C29.9122 10.4735 30.5288 11.0206 31.2894 11.0206Z" stroke="currentColor" stroke-width="0.97"/>
<path d="M28.5351 8.57655C29.2958 8.57655 29.9122 9.12355 29.9122 9.79857C29.9122 10.4736 29.2958 11.0206 28.5351 11.0206C27.7744 11.0206 27.1579 10.4736 27.1579 9.79857C27.1579 9.12355 27.7744 8.57655 28.5351 8.57655Z" stroke="currentColor" stroke-width="0.97"/>
<path d="M37.3489 8.57655C38.1095 8.57655 38.726 8.02943 38.726 7.35452C38.726 6.67962 38.1095 6.1325 37.3489 6.1325C36.5883 6.1325 35.9717 6.67962 35.9717 7.35452C35.9717 8.02943 36.5883 8.57655 37.3489 8.57655Z" stroke="currentColor" stroke-width="0.97"/>
<path d="M34.5945 8.57655C35.3551 8.57655 35.9717 8.02943 35.9717 7.35452C35.9717 6.67962 35.3551 6.1325 34.5945 6.1325C33.834 6.1325 33.2174 6.67962 33.2174 7.35452C33.2174 8.02943 33.834 8.57655 34.5945 8.57655Z" stroke="currentColor" stroke-width="0.97"/>
<path d="M31.8403 8.57655C32.6008 8.57655 33.2174 8.02943 33.2174 7.35452C33.2174 6.67962 32.6008 6.1325 31.8403 6.1325C31.0797 6.1325 30.4631 6.67962 30.4631 7.35452C30.4631 8.02943 31.0797 8.57655 31.8403 8.57655Z" stroke="currentColor" stroke-width="0.97"/>
<path d="M29.086 6.1325C29.8467 6.1325 30.4631 6.6795 30.4631 7.35452C30.4631 8.02955 29.8467 8.57655 29.086 8.57655C28.3253 8.57655 27.7088 8.02955 27.7088 7.35452C27.7088 6.6795 28.3253 6.1325 29.086 6.1325Z" stroke="currentColor" stroke-width="0.97"/>
</svg>
