<svg xmlns="http://www.w3.org/2000/svg" width="31.046" height="10.5">
    <g data-name="Group 10694">
        <g data-name="Group 1983">
            <g data-name="Group 1966">
                <g data-name="Group 1911" transform="translate(10.348 .1)" fill="none" stroke="#000" stroke-miterlimit="10" stroke-width=".2">
                    <circle cx="5.15" cy="5.15" r="5.15"/>
                    <path d="M5.15 0v2.369M8.857 1.545 7.364 3.038M7.931 5.15h2.42M7.313 7.158l1.545 1.545M5.15 7.931V10.3M3.193 7.158 1.545 8.806M2.42 5.15H0M3.192 3.141 1.493 1.493M5.201 2.214l2.111.824.721 2.111-.72 2.065-2.111.875-2.06-.927-.773-2.064.772-2.06Z"/>
                </g>
                <g data-name="Group 1928">
                    <g data-name="Group 1916">
                        <g data-name="Group 1915">
                            <path data-name="Path 5947" d="M7.413 3.807a3.042 3.042 0 0 1 2.626 1.343 3.042 3.042 0 0 1-2.626 1.335h-.052A2.812 2.812 0 0 1 4.683 5.15a2.812 2.812 0 0 1 2.678-1.343h.051m0-.257h-.051a3.011 3.011 0 0 0-2.884 1.493l-.051.155.051.1a3.134 3.134 0 0 0 2.935 1.493h.051a3.2 3.2 0 0 0 2.832-1.493l.051-.1-.051-.1A3.349 3.349 0 0 0 7.413 3.55Z"/>
                        </g>
                    </g>
                    <path data-name="Path 5948" d="M2.884 3.807a1.339 1.339 0 1 1 0 2.678 1.319 1.319 0 0 1-1.343-1.287 1.374 1.374 0 0 1 1.343-1.391m0-.257a1.6 1.6 0 1 0 1.6 1.6 1.6 1.6 0 0 0-1.6-1.6Z"/>
                    <path data-name="Path 5962" d="M.1 4.041s.994.556 1.17 1.113S.1 6.305.1 6.305Z" fill="none" stroke="#000" stroke-width=".2"/>
                </g>
                <g data-name="Group 1929">
                    <g data-name="Group 1916">
                        <g data-name="Group 1915">
                            <path data-name="Path 5947" d="M23.634 6.538a3.042 3.042 0 0 1-2.626-1.343 3.042 3.042 0 0 1 2.626-1.335h.052a2.812 2.812 0 0 1 2.678 1.335 2.812 2.812 0 0 1-2.678 1.343h-.051m0 .257h.051a3.011 3.011 0 0 0 2.884-1.493l.051-.155-.051-.1a3.134 3.134 0 0 0-2.936-1.496h-.051a3.2 3.2 0 0 0-2.833 1.493l-.051.1.051.1a3.349 3.349 0 0 0 2.884 1.551Z"/>
                        </g>
                    </g>
                    <g data-name="Ellipse_13_00000004521450578561634390000007088494195690568630_">
                        <path data-name="Path 5948" d="M28.163 6.538a1.363 1.363 0 0 1-1.335-1.343 1.363 1.363 0 0 1 1.335-1.335 1.319 1.319 0 0 1 1.343 1.287 1.374 1.374 0 0 1-1.343 1.391m0 .257a1.6 1.6 0 0 0 1.6-1.6 1.6 1.6 0 0 0-1.6-1.6 1.6 1.6 0 0 0-1.6 1.6 1.6 1.6 0 0 0 1.6 1.6Z"/>
                    </g>
                    <path data-name="Path 5962" d="M30.947 6.304s-.995-.556-1.169-1.113 1.169-1.151 1.169-1.151Z" fill="none" stroke="#000" stroke-width=".2"/>
                </g>
            </g>
        </g>
    </g>
</svg>
